<svg width="31" height="32" viewBox="0 0 31 32" fill="none" xmlns="http://www.w3.org/2000/svg">
<path d="M30 31V29C30 27.9391 29.5786 26.9217 28.8284 26.1716C28.0783 25.4214 27.0609 25 26 25H20C18.9391 25 17.9217 25.4214 17.1716 26.1716C16.4214 26.9217 16 27.9391 16 29V31" stroke="#2299CE" strokeWidth="2" stroke-linecap="round" stroke-linejoin="round"/>
<path d="M23 24C25.2091 24 27 22.2091 27 20C27 17.7909 25.2091 16 23 16C20.7909 16 19 17.7909 19 20C19 22.2091 20.7909 24 23 24Z" stroke="#2299CE" strokeWidth="2" stroke-linecap="round" stroke-linejoin="round"/>
<path fill-rule="evenodd" clipRule="evenodd" d="M11.5 10C11.5 9.70333 11.588 9.41332 11.7528 9.16665C11.9177 8.91997 12.1519 8.72771 12.426 8.61418C12.7001 8.50065 13.0017 8.47095 13.2927 8.52882C13.5836 8.5867 13.8509 8.72956 14.0607 8.93934C14.2705 9.14912 14.4133 9.41639 14.4712 9.70736C14.5291 9.99834 14.4994 10.2999 14.3859 10.574C14.2723 10.8481 14.0801 11.0824 13.8334 11.2472C13.5867 11.412 13.2967 11.5 13 11.5C12.6022 11.5 12.2207 11.342 11.9394 11.0607C11.6581 10.7794 11.5 10.3978 11.5 10ZM7.50003 11.5C7.79671 11.5 8.08672 11.412 8.33339 11.2472C8.58006 11.0824 8.77232 10.8481 8.88585 10.574C8.99939 10.2999 9.02909 9.99834 8.97121 9.70736C8.91333 9.41639 8.77047 9.14912 8.56069 8.93934C8.35091 8.72956 8.08364 8.5867 7.79267 8.52882C7.5017 8.47095 7.2001 8.50065 6.92601 8.61418C6.65192 8.72771 6.41765 8.91997 6.25283 9.16665C6.08801 9.41332 6.00003 9.70333 6.00003 10C6.00003 10.3978 6.15807 10.7794 6.43937 11.0607C6.72068 11.342 7.10221 11.5 7.50003 11.5ZM18.5 11.5C18.7967 11.5 19.0867 11.412 19.3334 11.2472C19.5801 11.0824 19.7723 10.8481 19.8859 10.574C19.9994 10.2999 20.0291 9.99834 19.9712 9.70736C19.9133 9.41639 19.7705 9.14912 19.5607 8.93934C19.3509 8.72956 19.0836 8.5867 18.7927 8.52882C18.5017 8.47095 18.2001 8.50065 17.926 8.61418C17.6519 8.72771 17.4177 8.91997 17.2528 9.16665C17.088 9.41332 17 9.70333 17 10C17 10.3978 17.1581 10.7794 17.4394 11.0607C17.7207 11.342 18.1022 11.5 18.5 11.5Z" fill="#7657FE"/>
<path fill-rule="evenodd" clipRule="evenodd" d="M26 2V13H24V2H2.00003V22L6.34628 18.25C6.52697 18.0906 6.75912 18.0019 7.00003 18H14V20H7.37503L3.30003 23.52L3.28878 23.5287C2.92883 23.8339 2.47196 24.001 2.00003 24C1.70624 23.9994 1.41614 23.9345 1.15003 23.81C0.804869 23.6505 0.512902 23.395 0.308985 23.074C0.105069 22.7531 -0.00218259 22.3802 3.36657e-05 22V2C3.36657e-05 1.46957 0.210747 0.960859 0.58582 0.585786C0.960893 0.210714 1.4696 0 2.00003 0H24C24.5305 0 25.0392 0.210714 25.4142 0.585786C25.7893 0.960859 26 1.46957 26 2Z" fill="#442EA6"/>
</svg>
